<svg width="99" height="85" viewBox="0 0 99 85" fill="none" xmlns="http://www.w3.org/2000/svg">
<path d="M14.6271 45.7533C24.2079 54.4106 36.5672 36.7112 47.1061 47.1962C57.645 57.6812 53.6945 66.098 38.1001 60.2784C22.5058 54.4588 39.4034 69.2416 25.2618 65.8134C11.1202 62.3851 32.5642 71.8254 21.142 70.8595C9.71991 69.8936 29.4774 82.8836 14.6271 75.9577C-0.223215 69.0319 -5.0633 56.0192 6.19595 63.5489C17.4552 71.0786 15.2977 62.9237 9.166 57.0078C3.03427 51.092 5.04625 37.096 14.6271 45.7533Z" fill="#A3F9FF"/>
<path d="M57.1846 3.07762C63.1983 8.21756 75.7612 2.00624 85.4559 3.07762C95.1506 4.149 107.907 20.2951 90.0292 23.8215C72.1518 27.348 67.5785 25.0662 69.6572 37.5125C71.736 49.9589 63.4209 37.6505 57.1846 35.4382C50.9483 33.2258 46.4695 24.7198 43.049 30.1827C39.6285 35.6457 34.545 19.8108 41.386 19.8108C48.227 19.8108 50.4381 15.3507 44.2963 6.81155C38.1544 -1.72764 52.0066 -1.34807 57.1846 3.07762Z" fill="#FFB5B5"/>
<path d="M76.5164 49.0563C81.9484 41.5338 85.2051 56.7055 93.7978 61.6365C102.39 66.5674 96.6095 72.7616 87.1969 81.9916C77.7843 91.2216 78.1628 75.6705 65.8359 81.9916C53.509 88.3127 65.2919 74.2166 59.235 61.6365C53.1781 49.0563 71.0844 56.5788 76.5164 49.0563Z" fill="#98FF83"/>
</svg>
